<svg width="184" height="183" viewBox="0 0 184 183" fill="none" xmlns="http://www.w3.org/2000/svg">
<path d="M92 183C142.534 183 183.5 142.034 183.5 91.5C183.5 40.966 142.534 0 92 0C41.466 0 0.5 40.966 0.5 91.5C0.5 142.034 41.466 183 92 183Z" fill="#57A300"/>
<path d="M41.1389 94.8283C40.2925 93.9247 39.8579 92.7352 39.9037 91.5C39.9494 90.2533 40.4755 89.1095 41.3905 88.2517L50.9409 79.422C51.8101 78.6328 52.9195 78.1982 54.0747 78.1982C55.3557 78.1982 56.591 78.7357 57.4602 79.6736L81.8907 105.888L125.433 50.1305C126.314 48.9982 127.641 48.3348 129.082 48.3348C130.111 48.3348 131.083 48.6665 131.907 49.2956L142.269 57.2904C144.248 58.7544 144.671 61.6023 143.184 63.6268L87.5065 134.917C85.3449 137.685 81.2159 137.868 78.814 135.294L41.1389 94.8283Z" fill="white"/>
</svg>
