<svg xmlns="http://www.w3.org/2000/svg" xmlns:xlink="http://www.w3.org/1999/xlink" width="161.229" height="53.142" viewBox="0 0 161.229 53.142">
  <defs>
    <clipPath id="clip-path">
      <rect id="rect1437" width="51.811" height="51.811" fill="#fff"/>
    </clipPath>
  </defs>
  <g id="Group_12000" data-name="Group 12000" transform="translate(-5124.85 112.252)">
    <g id="g1435" transform="translate(5124.85 -111.587)" clip-path="url(#clip-path)">
      <path id="path1433" d="M25.906,0a24.61,24.61,0,0,1,6.8.971,20.725,20.725,0,0,1,6.153,2.591,33.673,33.673,0,0,1,5.5,3.886,33.682,33.682,0,0,1,3.886,5.5,20.723,20.723,0,0,1,2.591,6.153,24.286,24.286,0,0,1,0,13.6,20.723,20.723,0,0,1-2.591,6.153,33.677,33.677,0,0,1-3.886,5.5,33.677,33.677,0,0,1-5.5,3.886,20.722,20.722,0,0,1-6.153,2.591,24.286,24.286,0,0,1-13.6,0,20.723,20.723,0,0,1-6.153-2.591,33.682,33.682,0,0,1-5.5-3.886,33.673,33.673,0,0,1-3.886-5.5A20.725,20.725,0,0,1,.971,32.706a24.287,24.287,0,0,1,0-13.6,20.725,20.725,0,0,1,2.591-6.153,33.677,33.677,0,0,1,3.886-5.5,33.677,33.677,0,0,1,5.5-3.886A20.725,20.725,0,0,1,19.105.971,24.61,24.61,0,0,1,25.906,0ZM3.238,25.906a20.724,20.724,0,0,0,.971,6.476h9.067a11.01,11.01,0,0,0-.324-3.238V22.667a11.01,11.01,0,0,0,.324-3.238H4.21A20.724,20.724,0,0,0,3.238,25.906ZM18.458,4.533a11.01,11.01,0,0,0-3.886,1.943L10.686,9.067,7.772,12.305A24.287,24.287,0,0,0,5.5,16.191h8.419a9.391,9.391,0,0,1,.648-2.914l.971-3.238,1.3-2.914A18.129,18.129,0,0,1,18.458,4.533ZM5.5,35.62a24.285,24.285,0,0,0,2.267,3.886l2.914,3.238,3.886,2.591a11.009,11.009,0,0,0,3.886,1.943,18.127,18.127,0,0,1-1.619-2.591l-1.3-2.914-.971-3.238a9.391,9.391,0,0,1-.648-2.914ZM35.3,32.382a11.011,11.011,0,0,1,.324-3.238V22.667a11.01,11.01,0,0,1-.324-3.238H16.515a11.01,11.01,0,0,1-.324,3.238v6.476a11.011,11.011,0,0,1,.324,3.238ZM25.906,3.238l-2.267.648L21.7,5.829,20.077,8.1a11.654,11.654,0,0,0-1.3,2.914l-.971,2.914a8.1,8.1,0,0,0-.648,2.267H34.649A8.1,8.1,0,0,0,34,13.924L33.03,11.01a11.654,11.654,0,0,0-1.3-2.914L30.115,5.829,28.172,3.886Zm0,45.335,2.267-.648,1.943-1.943,1.619-2.267a11.656,11.656,0,0,0,1.3-2.914L34,37.887a8.1,8.1,0,0,0,.648-2.267H17.162a8.1,8.1,0,0,0,.648,2.267l.971,2.914a11.656,11.656,0,0,0,1.3,2.914L21.7,45.983l1.943,1.943Zm20.4-32.382a24.283,24.283,0,0,0-2.267-3.886L41.125,9.067,37.239,6.476,33.354,4.533a18.13,18.13,0,0,1,1.619,2.591l1.3,2.914.971,3.238a9.393,9.393,0,0,1,.648,2.914ZM33.354,47.278a11.01,11.01,0,0,0,3.886-1.943l3.886-2.591,2.914-3.238a24.28,24.28,0,0,0,2.267-3.886H37.887a9.393,9.393,0,0,1-.648,2.914l-.971,3.238-1.3,2.914A18.129,18.129,0,0,1,33.354,47.278Zm15.22-21.372a20.724,20.724,0,0,0-.971-6.476H38.535a11.01,11.01,0,0,0,.324,3.238v6.476a11.01,11.01,0,0,0-.324,3.238H47.6A20.724,20.724,0,0,0,48.573,25.906Z" transform="translate(0)" fill="#fff"/>
    </g>
    <path id="Path_17780" data-name="Path 17780" d="M.624-14.69H5.46V0H9.906V-14.69h4.836v-3.562H.624Zm20.8,7.956c0-2.5,1.222-3.224,3.328-3.224h1.222v-4.706a5.408,5.408,0,0,0-4.55,2.574v-2.418H16.978V0h4.446Zm21.008-7.774H37.986V-6.63c0,1.976-1.092,3.068-2.808,3.068-1.664,0-2.782-1.092-2.782-3.068v-7.878h-4.42v8.476c0,3.874,2.262,6.188,5.616,6.188a5.286,5.286,0,0,0,4.394-2.132V0h4.446Zm9.594,3.354a2.508,2.508,0,0,1,2.73,2.5H49.192A2.75,2.75,0,0,1,52.026-11.154ZM58.968-4.81H54.236a2.364,2.364,0,0,1-2.314,1.4,2.69,2.69,0,0,1-2.756-2.782H59.228a11.235,11.235,0,0,0,.078-1.3,6.837,6.837,0,0,0-7.228-7.228c-4.316,0-7.332,2.86-7.332,7.462S47.814.208,52.078.208A6.78,6.78,0,0,0,58.968-4.81ZM1.612,28H6.058V9.748H1.612ZM8.4,20.72c0,4.576,2.834,7.488,6.4,7.488a5.018,5.018,0,0,0,4.472-2.288V28h4.446V8.76H19.266v6.734a5.326,5.326,0,0,0-4.472-2.21C11.232,13.284,8.4,16.144,8.4,20.72Zm10.868.026c0,2.314-1.482,3.588-3.172,3.588-1.664,0-3.172-1.3-3.172-3.614a3.23,3.23,0,0,1,3.172-3.562C17.784,17.158,19.266,18.432,19.266,20.746Zm14.066-3.9a2.508,2.508,0,0,1,2.73,2.5H30.5A2.75,2.75,0,0,1,33.332,16.846Zm6.942,6.344H35.542a2.364,2.364,0,0,1-2.314,1.4,2.69,2.69,0,0,1-2.756-2.782H40.534a11.235,11.235,0,0,0,.078-1.3,6.837,6.837,0,0,0-7.228-7.228c-4.316,0-7.332,2.86-7.332,7.462s3.068,7.462,7.332,7.462A6.78,6.78,0,0,0,40.274,23.19ZM52.962,28h4.42V19.524c0-3.9-2.236-6.188-5.59-6.188a5.32,5.32,0,0,0-4.394,2.08V13.492H42.952V28H47.4V20.122c0-1.976,1.092-3.068,2.782-3.068s2.782,1.092,2.782,3.068Zm8.216-5.044c0,3.77,2.106,5.044,5.122,5.044h2.262V24.23H66.976c-.988,0-1.352-.364-1.352-1.222V17.184h2.912V13.492H65.624V9.956H61.178v3.536H59.41v3.692h1.768ZM71.032,28h4.446V13.492H71.032Zm2.236-16.016a2.417,2.417,0,1,0-2.652-2.392A2.448,2.448,0,0,0,73.268,11.984ZM79.4,22.956C79.4,26.726,81.51,28,84.526,28h2.262V24.23H85.2c-.988,0-1.352-.364-1.352-1.222V17.184h2.912V13.492H83.85V9.956H79.4v3.536H77.636v3.692H79.4Zm16.536-.39-3.354-9.074H87.62l5.9,14.014L90.194,34.89h4.784l9.1-21.4h-4.81Z" transform="translate(5182 -94)" fill="#fff"/>
  </g>
</svg>
